<?xml version="1.0" standalone="no"?><!DOCTYPE svg PUBLIC "-//W3C//DTD SVG 1.1//EN" "http://www.w3.org/Graphics/SVG/1.1/DTD/svg11.dtd"><svg t="1582020730124" class="icon" viewBox="0 0 1024 1024" version="1.1" xmlns="http://www.w3.org/2000/svg" p-id="16357" xmlns:xlink="http://www.w3.org/1999/xlink" width="16" height="16"><defs><style type="text/css"></style></defs><path d="M409.6 163.84C277.319741 163.84 171.392106 268.485612 165.76 399.36 69.96311 425.480765 0 511.92277 0 614.4 0 738.210918 101.469092 839.68 225.28 839.68L839.68 839.68C940.962918 839.68 1024 756.642918 1024 655.36 1024 575.497687 970.766787 507.745628 899.2 483.84 894.853161 363.767726 796.915466 266.24 675.84 266.24 654.568264 266.24 634.753475 271.480197 615.04 277.12 571.021005 210.167603 495.961948 163.84 409.6 163.84zM409.6 204.8C485.908808 204.8 552.776417 247.664312 588.16 309.12L597.12 323.84 613.12 318.08C633.587507 310.637281 653.539553 307.2 675.84 307.2 777.309082 307.2 860.16 390.050918 860.16 491.52L860.16 497.92 860.16 513.92 876.16 517.76C936.205496 531.888353 983.04 589.178225 983.04 655.36 983.04 734.301082 918.621082 798.72 839.68 798.72L225.28 798.72C123.810908 798.72 40.96 715.869082 40.96 614.4 40.96 525.767107 103.58826 450.466652 188.16 433.92L204.8 430.72 204.8 413.44 204.8 409.6C204.8 295.639429 295.639429 204.8 409.6 204.8zM491.52 409.6 491.52 646.4 403.84 558.72 374.4 588.16 497.28 711.04 512 725.12 526.72 711.04 649.6 588.16 620.16 558.72 532.48 646.4 532.48 409.6 491.52 409.6z" p-id="16358"></path></svg>