<?xml version="1.0" standalone="no"?><!DOCTYPE svg PUBLIC "-//W3C//DTD SVG 1.1//EN" "http://www.w3.org/Graphics/SVG/1.1/DTD/svg11.dtd"><svg t="1582019040074" class="icon" viewBox="0 0 1024 1024" version="1.1" xmlns="http://www.w3.org/2000/svg" p-id="8945" width="16" height="16" xmlns:xlink="http://www.w3.org/1999/xlink"><defs><style type="text/css"></style></defs><path d="M21.333333 0v1024" p-id="8946" fill="#ffffff"></path><path d="M42.666667 0v1024" p-id="8947" fill="#ffffff"></path><path d="M64 0v1024" p-id="8948" fill="#ffffff"></path><path d="M85.333333 0v1024" p-id="8949" fill="#ffffff"></path><path d="M106.666667 0v1024" p-id="8950" fill="#ffffff"></path><path d="M128 0v1024" p-id="8951" fill="#ffffff"></path><path d="M149.333333 0v1024" p-id="8952" fill="#ffffff"></path><path d="M170.666667 0v1024" p-id="8953" fill="#ffffff"></path><path d="M192 0v1024" p-id="8954" fill="#ffffff"></path><path d="M213.333333 0v1024" p-id="8955" fill="#ffffff"></path><path d="M234.666667 0v1024" p-id="8956" fill="#ffffff"></path><path d="M256 0v1024" p-id="8957" fill="#ffffff"></path><path d="M277.333333 0v1024" p-id="8958" fill="#ffffff"></path><path d="M298.666667 0v1024" p-id="8959" fill="#ffffff"></path><path d="M320 0v1024" p-id="8960" fill="#ffffff"></path><path d="M341.333333 0v1024" p-id="8961" fill="#ffffff"></path><path d="M362.666667 0v1024" p-id="8962" fill="#ffffff"></path><path d="M384 0v1024" p-id="8963" fill="#ffffff"></path><path d="M405.333333 0v1024" p-id="8964" fill="#ffffff"></path><path d="M426.666667 0v1024" p-id="8965" fill="#ffffff"></path><path d="M448 0v1024" p-id="8966" fill="#ffffff"></path><path d="M469.333333 0v1024" p-id="8967" fill="#ffffff"></path><path d="M490.666667 0v1024" p-id="8968" fill="#ffffff"></path><path d="M512 0v1024" p-id="8969" fill="#ffffff"></path><path d="M533.333333 0v1024" p-id="8970" fill="#ffffff"></path><path d="M554.666667 0v1024" p-id="8971" fill="#ffffff"></path><path d="M576 0v1024" p-id="8972" fill="#ffffff"></path><path d="M597.333333 0v1024" p-id="8973" fill="#ffffff"></path><path d="M618.666667 0v1024" p-id="8974" fill="#ffffff"></path><path d="M640 0v1024" p-id="8975" fill="#ffffff"></path><path d="M661.333333 0v1024" p-id="8976" fill="#ffffff"></path><path d="M682.666667 0v1024" p-id="8977" fill="#ffffff"></path><path d="M704 0v1024" p-id="8978" fill="#ffffff"></path><path d="M725.333333 0v1024" p-id="8979" fill="#ffffff"></path><path d="M746.666667 0v1024" p-id="8980" fill="#ffffff"></path><path d="M768 0v1024" p-id="8981" fill="#ffffff"></path><path d="M789.333333 0v1024" p-id="8982" fill="#ffffff"></path><path d="M810.666667 0v1024" p-id="8983" fill="#ffffff"></path><path d="M832 0v1024" p-id="8984" fill="#ffffff"></path><path d="M853.333333 0v1024" p-id="8985" fill="#ffffff"></path><path d="M874.666667 0v1024" p-id="8986" fill="#ffffff"></path><path d="M896 0v1024" p-id="8987" fill="#ffffff"></path><path d="M917.333333 0v1024" p-id="8988" fill="#ffffff"></path><path d="M938.666667 0v1024" p-id="8989" fill="#ffffff"></path><path d="M960 0v1024" p-id="8990" fill="#ffffff"></path><path d="M981.333333 0v1024" p-id="8991" fill="#ffffff"></path><path d="M1002.666667 0v1024M0 21.333333h1024" p-id="8992" fill="#ffffff"></path><path d="M0 42.666667h1024" p-id="8993" fill="#ffffff"></path><path d="M0 64h1024" p-id="8994" fill="#ffffff"></path><path d="M0 85.333333h1024" p-id="8995" fill="#ffffff"></path><path d="M0 106.666667h1024" p-id="8996" fill="#ffffff"></path><path d="M0 128h1024" p-id="8997" fill="#ffffff"></path><path d="M0 149.333333h1024" p-id="8998" fill="#ffffff"></path><path d="M0 170.666667h1024" p-id="8999" fill="#ffffff"></path><path d="M0 192h1024" p-id="9000" fill="#ffffff"></path><path d="M0 213.333333h1024" p-id="9001" fill="#ffffff"></path><path d="M0 234.666667h1024" p-id="9002" fill="#ffffff"></path><path d="M0 256h1024" p-id="9003" fill="#ffffff"></path><path d="M0 277.333333h1024" p-id="9004" fill="#ffffff"></path><path d="M0 298.666667h1024" p-id="9005" fill="#ffffff"></path><path d="M0 320h1024" p-id="9006" fill="#ffffff"></path><path d="M0 341.333333h1024" p-id="9007" fill="#ffffff"></path><path d="M0 362.666667h1024" p-id="9008" fill="#ffffff"></path><path d="M0 384h1024" p-id="9009" fill="#ffffff"></path><path d="M0 405.333333h1024" p-id="9010" fill="#ffffff"></path><path d="M0 426.666667h1024" p-id="9011" fill="#ffffff"></path><path d="M0 448h1024" p-id="9012" fill="#ffffff"></path><path d="M0 469.333333h1024" p-id="9013" fill="#ffffff"></path><path d="M0 490.666667h1024" p-id="9014" fill="#ffffff"></path><path d="M0 512h1024" p-id="9015" fill="#ffffff"></path><path d="M0 533.333333h1024" p-id="9016" fill="#ffffff"></path><path d="M0 554.666667h1024" p-id="9017" fill="#ffffff"></path><path d="M0 576h1024" p-id="9018" fill="#ffffff"></path><path d="M0 597.333333h1024" p-id="9019" fill="#ffffff"></path><path d="M0 618.666667h1024" p-id="9020" fill="#ffffff"></path><path d="M0 640h1024" p-id="9021" fill="#ffffff"></path><path d="M0 661.333333h1024" p-id="9022" fill="#ffffff"></path><path d="M0 682.666667h1024" p-id="9023" fill="#ffffff"></path><path d="M0 704h1024" p-id="9024" fill="#ffffff"></path><path d="M0 725.333333h1024" p-id="9025" fill="#ffffff"></path><path d="M0 746.666667h1024" p-id="9026" fill="#ffffff"></path><path d="M0 768h1024" p-id="9027" fill="#ffffff"></path><path d="M0 789.333333h1024" p-id="9028" fill="#ffffff"></path><path d="M0 810.666667h1024" p-id="9029" fill="#ffffff"></path><path d="M0 832h1024" p-id="9030" fill="#ffffff"></path><path d="M0 853.333333h1024" p-id="9031" fill="#ffffff"></path><path d="M0 874.666667h1024" p-id="9032" fill="#ffffff"></path><path d="M0 896h1024" p-id="9033" fill="#ffffff"></path><path d="M0 917.333333h1024" p-id="9034" fill="#ffffff"></path><path d="M0 938.666667h1024" p-id="9035" fill="#ffffff"></path><path d="M0 960h1024" p-id="9036" fill="#ffffff"></path><path d="M0 981.333333h1024" p-id="9037" fill="#ffffff"></path><path d="M0 1002.666667h1024" p-id="9038" fill="#ffffff"></path><path d="M512 910l-62-56c-220-200-364-330-364-492C86 230 188 128 320 128c74 0 146 36 192 90C558 164 630 128 704 128c132 0 234 102 234 234 0 162-144 294-364 494z" p-id="9039" fill="#ffffff"></path></svg>