<?xml version="1.0" standalone="no"?><!DOCTYPE svg PUBLIC "-//W3C//DTD SVG 1.1//EN" "http://www.w3.org/Graphics/SVG/1.1/DTD/svg11.dtd"><svg t="1582019836632" class="icon" viewBox="0 0 1024 1024" version="1.1" xmlns="http://www.w3.org/2000/svg" p-id="14834" xmlns:xlink="http://www.w3.org/1999/xlink" width="16" height="16"><defs><style type="text/css"></style></defs><path d="M298.666667 605.013333V128a42.666667 42.666667 0 0 0-85.333334 0v477.013333a128 128 0 0 0 0 240.64V896a42.666667 42.666667 0 0 0 85.333334 0v-50.346667a128 128 0 0 0 0-240.64zM896 554.666667a128 128 0 0 0-85.333333-120.32V128a42.666667 42.666667 0 0 0-85.333334 0v306.346667a128 128 0 0 0 0 240.64V896a42.666667 42.666667 0 0 0 85.333334 0v-221.013333A128 128 0 0 0 896 554.666667zM640 213.333333a128 128 0 1 0-170.666667 120.32V896a42.666667 42.666667 0 0 0 85.333334 0V333.653333A128 128 0 0 0 640 213.333333z" p-id="14835"></path></svg>