<?xml version="1.0" standalone="no"?><!DOCTYPE svg PUBLIC "-//W3C//DTD SVG 1.1//EN" "http://www.w3.org/Graphics/SVG/1.1/DTD/svg11.dtd"><svg t="1582019459955" class="icon" viewBox="0 0 1024 1024" version="1.1" xmlns="http://www.w3.org/2000/svg" p-id="12637" xmlns:xlink="http://www.w3.org/1999/xlink" width="16" height="16"><defs><style type="text/css"></style></defs><path d="M512 832c176.448 0 320-143.552 320-320S688.448 192 512 192 192 335.552 192 512s143.552 320 320 320z m0-736c229.76 0 416 186.24 416 416s-186.24 416-416 416S96 741.76 96 512 282.24 96 512 96z m-93.312 534.432V393.6a32 32 0 0 1 48.96-27.136l189.472 118.432a31.968 31.968 0 0 1 0 54.24l-189.472 118.464a32 32 0 0 1-48.96-27.136z" p-id="12638" fill="#ffffff"></path></svg>